<?xml version="1.0" encoding="iso-8859-1"?>
<!-- Generator: Adobe Illustrator 18.1.1, SVG Export Plug-In . SVG Version: 6.00 Build 0)  -->
<svg version="1.1" id="Capa_1" xmlns="http://www.w3.org/2000/svg" xmlns:xlink="http://www.w3.org/1999/xlink" x="0px" y="0px"
	 viewBox="0 0 32.819 32.819" style="enable-background:new 0 0 32.819 32.819;" xml:space="preserve">
<g>
	<path d="M30.632,0.795H2.19C0.98,0.795,0,1.781,0,2.998v20.206c0,1.215,0.98,2.203,2.19,2.203H13.1c0,0,0.477,4.41-3.307,4.41
		v2.207H13.1h6.616h3.31v-2.207c-3.93,0-3.31-4.41-3.31-4.41h10.916c1.207,0,2.187-0.987,2.187-2.203V2.998
		C32.818,1.781,31.839,0.795,30.632,0.795z M14.663,22.708c0-1.044,0.848-1.891,1.893-1.891c1.046,0,1.892,0.847,1.892,1.891
		c0,1.045-0.846,1.893-1.892,1.893C15.511,24.601,14.663,23.753,14.663,22.708z M30.475,20.174H2.345V3.137h28.13
		C30.475,3.137,30.475,20.174,30.475,20.174z"/>
	<circle cx="16.576" cy="22.701" r="1.176"/>
	<g>
	</g>
	<g>
	</g>
	<g>
	</g>
	<g>
	</g>
	<g>
	</g>
	<g>
	</g>
	<g>
	</g>
	<g>
	</g>
	<g>
	</g>
	<g>
	</g>
	<g>
	</g>
	<g>
	</g>
	<g>
	</g>
	<g>
	</g>
	<g>
	</g>
</g>
<g>
</g>
<g>
</g>
<g>
</g>
<g>
</g>
<g>
</g>
<g>
</g>
<g>
</g>
<g>
</g>
<g>
</g>
<g>
</g>
<g>
</g>
<g>
</g>
<g>
</g>
<g>
</g>
<g>
</g>
</svg>
