<?xml version="1.0" encoding="iso-8859-1"?>
<!-- Generator: Adobe Illustrator 16.0.0, SVG Export Plug-In . SVG Version: 6.00 Build 0)  -->
<!DOCTYPE svg PUBLIC "-//W3C//DTD SVG 1.1//EN" "http://www.w3.org/Graphics/SVG/1.1/DTD/svg11.dtd">
<svg version="1.1" id="Capa_1" xmlns="http://www.w3.org/2000/svg" xmlns:xlink="http://www.w3.org/1999/xlink" x="0px" y="0px"
	 width="424.932px" height="424.933px" viewBox="0 0 424.932 424.933" style="enable-background:new 0 0 424.932 424.933;"
	 xml:space="preserve">
<g>
	<path d="M329.626,134.455c-3.111,0-6.291,0.178-9.614,0.547c-18.304-23.869-46.642-37.716-77.057-37.333
		c-13.642-37.163-49.289-62.454-89.388-62.454c-52.553,0-95.306,42.752-95.306,95.305c0,3.705,0.219,7.426,0.662,11.142
		C23.343,156.249,0,190.633,0,229.771c0,52.553,42.753,95.305,95.305,95.305h234.316c52.556,0,95.312-42.752,95.312-95.305
		C424.932,177.218,382.18,134.455,329.626,134.455z M329.626,304.956H95.311c-41.453,0-75.185-33.734-75.185-75.19
		c0-33.22,21.315-62.102,53.048-71.861l8.785-2.706l-1.91-8.996c-1.106-5.199-1.667-10.471-1.667-15.683
		c0-41.453,33.733-75.185,75.185-75.185c33.807,0,63.609,22.804,72.485,55.456l2.227,8.232l8.486-0.859
		c2.529-0.252,5.098-0.38,7.614-0.38c25.204,0,48.616,12.556,62.619,33.598l3.623,5.429l6.424-1.075
		c4.565-0.775,8.679-1.149,12.58-1.149c41.461,0,75.19,33.732,75.19,75.191C404.817,271.24,371.087,304.956,329.626,304.956z
		 M242.644,368.229h64.33v16.368h-64.33v5.121h-71.228v-5.121H92.118v-16.368h79.292v-8.186h20.784V339.49l29.663-0.006v20.559
		h20.782v8.186H242.644z"/>
</g>
<g>
</g>
<g>
</g>
<g>
</g>
<g>
</g>
<g>
</g>
<g>
</g>
<g>
</g>
<g>
</g>
<g>
</g>
<g>
</g>
<g>
</g>
<g>
</g>
<g>
</g>
<g>
</g>
<g>
</g>
</svg>
