<?xml version="1.0" encoding="iso-8859-1"?>
<!-- Generator: Adobe Illustrator 19.0.0, SVG Export Plug-In . SVG Version: 6.00 Build 0)  -->
<svg version="1.1" id="Capa_1" xmlns="http://www.w3.org/2000/svg" xmlns:xlink="http://www.w3.org/1999/xlink" x="0px" y="0px"
	 viewBox="0 0 55 55" style="enable-background:new 0 0 55 55;" xml:space="preserve">
<g>
	<circle cx="7.5" cy="29" r="1"/>
	<circle cx="7.5" cy="35" r="1"/>
	<circle cx="10.5" cy="32" r="1"/>
	<circle cx="16.5" cy="32" r="1"/>
	<circle cx="13.5" cy="35" r="1"/>
	<circle cx="19.5" cy="35" r="1"/>
	<circle cx="22.5" cy="32" r="1"/>
	<circle cx="28.5" cy="32" r="1"/>
	<circle cx="25.5" cy="35" r="1"/>
	<circle cx="31.5" cy="35" r="1"/>
	<circle cx="34.5" cy="32" r="1"/>
	<circle cx="40.5" cy="32" r="1"/>
	<circle cx="37.5" cy="35" r="1"/>
	<circle cx="43.5" cy="35" r="1"/>
	<circle cx="46.5" cy="32" r="1"/>
	<circle cx="49.5" cy="29" r="1"/>
	<circle cx="16.5" cy="38" r="1"/>
	<circle cx="22.5" cy="38" r="1"/>
	<circle cx="28.5" cy="38" r="1"/>
	<circle cx="34.5" cy="38" r="1"/>
	<circle cx="40.5" cy="38" r="1"/>
	<path d="M52.43,8.652c-0.009-0.025-0.018-0.049-0.029-0.072c-0.01-0.021-0.015-0.044-0.026-0.064C51.156,3.639,40.607,0,27.5,0
		S3.844,3.639,2.625,8.516C2.614,8.536,2.609,8.559,2.599,8.58C2.588,8.604,2.579,8.627,2.57,8.652C2.529,8.761,2.5,8.876,2.5,9v0.5
		V33v0.5V46c0,0.162,0.043,0.315,0.117,0.451C3.798,51.346,14.364,55,27.5,55c13.106,0,23.655-3.639,24.875-8.516
		C52.455,46.341,52.5,46.176,52.5,46V33.5V33V9.5V9C52.5,8.876,52.471,8.761,52.43,8.652z M47.132,37.243
		C46.959,37.098,46.744,37,46.5,37c-0.552,0-1,0.448-1,1c0,0.011,0.006,0.02,0.006,0.031c-2.005,0.847-4.567,1.572-7.544,2.097
		C37.822,40.053,37.67,40,37.5,40c-0.294,0-0.551,0.132-0.734,0.333c-1.357,0.206-2.795,0.369-4.303,0.482
		C32.374,40.355,31.987,40,31.5,40c-0.526,0-0.945,0.41-0.985,0.926C29.532,40.97,28.533,41,27.5,41
		c-0.341,0-0.668-0.013-1.004-0.018C26.486,40.438,26.046,40,25.5,40c-0.527,0-0.946,0.411-0.985,0.928
		c-1.418-0.063-2.789-0.164-4.091-0.309C20.273,40.256,19.917,40,19.5,40c-0.322,0-0.595,0.162-0.778,0.398
		c-2.872-0.409-5.4-1.003-7.497-1.718C11.393,38.501,11.5,38.264,11.5,38c0-0.552-0.448-1-1-1s-1,0.448-1,1
		c0,0.013,0.007,0.023,0.007,0.036C6.32,36.691,4.5,35.057,4.5,33.5c0-0.113,0.013-0.226,0.031-0.338
		c0.009-0.056-0.009-0.111-0.009-0.167C5.064,32.983,5.5,32.544,5.5,32c0-0.552-0.448-1-1-1v-4c0.527,0,0.946-0.411,0.985-0.928
		c1.728,1.223,4.131,2.275,7.047,3.089C12.612,29.633,13.005,30,13.5,30c0.32,0,0.591-0.16,0.774-0.393
		C18.097,30.493,22.619,31,27.5,31c5.674,0,10.863-0.685,15.029-1.854C42.603,29.626,42.999,30,43.5,30c0.552,0,1-0.448,1-1
		c0-0.156-0.043-0.299-0.106-0.43c2.62-0.899,4.702-2.015,6.106-3.279V29v3.717c-0.042,0.143-0.056,0.294-0.031,0.445
		c0.019,0.112,0.031,0.225,0.031,0.338c0,0.298-0.09,0.599-0.221,0.9C50.097,34.163,49.823,34,49.5,34c-0.552,0-1,0.448-1,1
		c0,0.408,0.246,0.756,0.596,0.911C48.576,36.369,47.92,36.815,47.132,37.243z M50.5,21.747c-0.008,0.031-0.027,0.058-0.032,0.091
		C49.901,25.297,40.536,29,27.5,29S5.099,25.297,4.532,21.838c-0.005-0.033-0.024-0.059-0.032-0.091v-8.479
		C7.931,16.431,15.744,19,27.5,19s19.569-2.569,23-5.732V21.747z M27.5,2c13.038,0,22.402,3.703,22.968,7.161l0.001,0.006
		C50.487,9.278,50.5,9.388,50.5,9.5c0,3.548-9.445,7.5-23,7.5s-23-3.952-23-7.5c0-0.112,0.013-0.222,0.031-0.333l0.001-0.006
		C5.098,5.703,14.462,2,27.5,2z M50.468,45.838C49.901,49.297,40.536,53,27.5,53S5.099,49.297,4.532,45.838
		c-0.008-0.045-0.019-0.089-0.032-0.131v-8.439C7.931,40.431,15.744,43,27.5,43s19.569-2.569,23-5.732v8.435
		C50.486,45.747,50.476,45.792,50.468,45.838z"/>
</g>
<g>
</g>
<g>
</g>
<g>
</g>
<g>
</g>
<g>
</g>
<g>
</g>
<g>
</g>
<g>
</g>
<g>
</g>
<g>
</g>
<g>
</g>
<g>
</g>
<g>
</g>
<g>
</g>
<g>
</g>
</svg>
