<?xml version="1.0" encoding="iso-8859-1"?>
<!-- Generator: Adobe Illustrator 16.0.0, SVG Export Plug-In . SVG Version: 6.00 Build 0)  -->
<!DOCTYPE svg PUBLIC "-//W3C//DTD SVG 1.1//EN" "http://www.w3.org/Graphics/SVG/1.1/DTD/svg11.dtd">
<svg version="1.1" id="Capa_1" xmlns="http://www.w3.org/2000/svg" xmlns:xlink="http://www.w3.org/1999/xlink" x="0px" y="0px"
	 width="957.301px" height="957.301px" viewBox="0 0 957.301 957.301" style="enable-background:new 0 0 957.301 957.301;"
	 xml:space="preserve">
<g>
	<g>
		<path d="M906.199,229.55h-57.898c0.199,4.4-14.5,152.9-14.5,152.9H793.1H170.8h-39c0,0-20.7-147.2-20.5-152.9H51
			c-28.2,0-51,22.8-51,51v442.6c0,28.2,22.8,51,51,51h26.2v-16.6c0-18.2,14.8-33,33-33l0,0c18.2,0,33,14.8,33,33v16.6h685.999v-16.6
			c0-18.2,14.801-33,33-33c18.201,0,33,14.8,33,33v16.6h11.102c28.199,0,51-22.8,51-51v-442.6
			C957.199,252.351,934.4,229.55,906.199,229.55z M264.4,652.95c-53.9,0-97.6-43.7-97.6-97.6c0-53.9,43.7-97.601,97.6-97.601
			c53.9,0,97.601,43.7,97.601,97.601C362,609.25,318.3,652.95,264.4,652.95z M692.801,652.95c-53.9,0-97.602-43.7-97.602-97.6
			c0-53.9,43.701-97.601,97.602-97.601c53.898,0,97.6,43.7,97.6,97.601C790.4,609.25,746.699,652.95,692.801,652.95z"/>
		<path d="M753.4,183.15H206.2c-26.8,0-48.1,20.9-49.9,46.4c-0.2,3.5,14.4,107.9,14.4,107.9H793c0,0,10.4-105.1,10.199-107.9
			C801.5,203.851,780.1,183.15,753.4,183.15z"/>
	</g>
</g>
<g>
</g>
<g>
</g>
<g>
</g>
<g>
</g>
<g>
</g>
<g>
</g>
<g>
</g>
<g>
</g>
<g>
</g>
<g>
</g>
<g>
</g>
<g>
</g>
<g>
</g>
<g>
</g>
<g>
</g>
</svg>
