<?xml version="1.0" encoding="iso-8859-1"?>
<!-- Generator: Adobe Illustrator 16.0.0, SVG Export Plug-In . SVG Version: 6.00 Build 0)  -->
<!DOCTYPE svg PUBLIC "-//W3C//DTD SVG 1.1//EN" "http://www.w3.org/Graphics/SVG/1.1/DTD/svg11.dtd">
<svg version="1.1" id="Capa_1" xmlns="http://www.w3.org/2000/svg" xmlns:xlink="http://www.w3.org/1999/xlink" x="0px" y="0px"
	 width="353.073px" height="353.073px" viewBox="0 0 353.073 353.073" style="enable-background:new 0 0 353.073 353.073;"
	 xml:space="preserve">
<g>
	<path d="M340.969,0H12.105C5.423,0,0,5.423,0,12.105v328.863c0,6.68,5.423,12.105,12.105,12.105h328.864
		c6.679,0,12.104-5.426,12.104-12.105V12.105C353.073,5.423,347.647,0,340.969,0z M67.589,18.164h217.895v101.884H67.589V18.164z
		 M296.082,327.35H57.003V176.537h239.079V327.35z M223.953,33.295h30.269v72.638h-30.269V33.295z M274.135,213.863H78.938v-12.105
		h195.197V213.863z M274.135,256.231H78.938v-12.105h195.197V256.231z M274.135,297.087H78.938v-12.105h195.197V297.087z"/>
</g>
<g>
</g>
<g>
</g>
<g>
</g>
<g>
</g>
<g>
</g>
<g>
</g>
<g>
</g>
<g>
</g>
<g>
</g>
<g>
</g>
<g>
</g>
<g>
</g>
<g>
</g>
<g>
</g>
<g>
</g>
</svg>
