<?xml version="1.0" encoding="iso-8859-1"?>
<!-- Generator: Adobe Illustrator 16.0.0, SVG Export Plug-In . SVG Version: 6.00 Build 0)  -->
<!DOCTYPE svg PUBLIC "-//W3C//DTD SVG 1.1//EN" "http://www.w3.org/Graphics/SVG/1.1/DTD/svg11.dtd">
<svg version="1.1" id="Capa_1" xmlns="http://www.w3.org/2000/svg" xmlns:xlink="http://www.w3.org/1999/xlink" x="0px" y="0px"
	 width="473.462px" height="473.461px" viewBox="0 0 473.462 473.461" style="enable-background:new 0 0 473.462 473.461;"
	 xml:space="preserve">
<g>
	<g>
		<path d="M437.959,317.752c11.139,0,21.5,3.404,30.099,9.217L408.742,44.25c-3.47-16.542-19.981-29.945-36.885-29.945H101.586
			c-16.897,0-33.416,13.409-36.885,29.945L5.392,326.969c8.599-5.82,18.959-9.217,30.098-9.217H437.959L437.959,317.752z"/>
		<path d="M35.496,459.157h402.47c19.602,0,35.496-15.895,35.496-35.496v-52.057c0-6.971-2.038-13.447-5.509-18.93
			c-6.291-9.945-17.356-16.561-29.987-16.561H35.496c-12.631,0-23.696,6.621-29.988,16.561C2.038,358.157,0,364.639,0,371.604
			v52.057C0,443.268,15.894,459.157,35.496,459.157z M412.17,392.79h-77.314c-5.073,0-9.18-4.105-9.18-9.18
			c0-5.072,4.106-9.18,9.18-9.18h77.314c5.073,0,9.18,4.107,9.18,9.18C421.35,388.684,417.237,392.79,412.17,392.79z"/>
	</g>
</g>
<g>
</g>
<g>
</g>
<g>
</g>
<g>
</g>
<g>
</g>
<g>
</g>
<g>
</g>
<g>
</g>
<g>
</g>
<g>
</g>
<g>
</g>
<g>
</g>
<g>
</g>
<g>
</g>
<g>
</g>
</svg>
