<?xml version="1.0" encoding="iso-8859-1"?>
<!-- Generator: Adobe Illustrator 16.0.0, SVG Export Plug-In . SVG Version: 6.00 Build 0)  -->
<!DOCTYPE svg PUBLIC "-//W3C//DTD SVG 1.1//EN" "http://www.w3.org/Graphics/SVG/1.1/DTD/svg11.dtd">
<svg version="1.1" id="Capa_1" xmlns="http://www.w3.org/2000/svg" xmlns:xlink="http://www.w3.org/1999/xlink" x="0px" y="0px"
	 width="926px" height="926px" viewBox="0 0 926 926" style="enable-background:new 0 0 926 926;" xml:space="preserve">
<g>
	<g>
		<path d="M646.201,521.2c5.898-1.5,10.799-4,14.699-7.5s7.1-9.4,9.6-17.5c2.5-8.101,3.701-19.2,3.701-33.101
			c0-14-1.201-24.699-3.701-32.199s-5.9-13.301-10.4-17.5c-4.398-4.2-10.1-7-16.898-8.5c-5.102-1.2-15.102-1.7-30-1.7h-16.4V523
			H624.1C634.4,522.9,641.701,522.3,646.201,521.2z"/>
		<path d="M138.4,53.2v819.6c0,29.4,23.8,53.2,53.2,53.2h542.8c29.4,0,53.199-23.8,53.199-53.2V53.2C787.6,23.8,763.801,0,734.4,0
			h-542.8C162.201,0,138.4,23.8,138.4,53.2z M702.5,875.5c-14,0-25.4-11.4-25.4-25.4s11.4-25.399,25.4-25.399
			s25.4,11.399,25.4,25.399S716.6,875.5,702.5,875.5z M702.5,55.1c14,0,25.4,11.4,25.4,25.4s-11.4,25.4-25.4,25.4
			s-25.4-11.4-25.4-25.4C677.201,66.5,688.5,55.1,702.5,55.1z M560.301,390.5c0-9.9,8.1-18,18-18H627.1c15.102,0,26.5,1.2,34.4,3.5
			c10.6,3.1,19.701,8.7,27.301,16.7S702.1,410.5,706.1,422c3.9,11.6,5.9,25.8,5.9,42.8c0,14.9-1.9,27.7-5.6,38.5
			c-4.5,13.2-11,23.8-19.4,32c-6.299,6.2-14.9,11-25.699,14.4c-8.1,2.6-18.801,3.8-32.301,3.8h-50.799c-9.9,0-18-8.1-18-18v-145
			H560.301z M489.4,489.9c-2.5-3-6.9-5.601-13.1-7.801c-4.301-1.5-14-4.1-29.3-7.899c-19.6-4.9-33.3-10.8-41.2-17.9
			c-11.1-10-16.7-22.1-16.7-36.399c0-9.2,2.601-17.801,7.801-25.9c5.199-8,12.8-14.1,22.6-18.3s21.7-6.3,35.6-6.3
			c22.701,0,39.8,5,51.3,14.899c4.9,4.2,8.801,9.101,11.699,14.5c6.201,11.601-2,25.7-15.199,26.3h-1.1
			c-7.201,0.301-14.1-3.699-17-10.3c-1.801-3.899-4-6.899-6.9-9.2c-5.1-4.1-12.9-6.1-23.1-6.1c-10.6,0-18.899,2.2-24.899,6.5
			c-3.9,2.8-5.801,6.5-5.801,11.2c0,4.3,1.801,7.899,5.4,11c4.6,3.899,15.8,7.899,33.6,12.1c17.8,4.2,30.9,8.5,39.4,13
			s15.201,10.601,20,18.4c4.801,7.8,7.201,17.399,7.201,28.8c0,10.4-2.9,20.1-8.602,29.1c-5.799,9.101-13.898,15.801-24.398,20.2
			c-10.5,4.4-23.701,6.601-39.401,6.601c-22.899,0-40.399-5.301-52.7-15.9c-7.3-6.3-12.8-14.2-16.6-23.9
			c-4.4-11.1,3.2-23.199,15.1-24.399l0,0c7.9-0.8,15.601,3.6,18.601,11c2.399,5.8,5.5,10.399,9.5,13.8c6.5,5.6,15.399,8.4,26.5,8.4
			c11.799,0,20.6-2.5,26.6-7.5s8.9-10.801,8.9-17.5C493.201,496.6,491.9,492.9,489.4,489.9z M286.6,369.4
			c22.7,0,39.801,5,51.301,14.899c4.899,4.2,8.8,9.101,11.699,14.5c6.2,11.601-2,25.7-15.199,26.3H333.3
			c-7.2,0.301-14.1-3.699-17-10.3c-1.8-3.899-4-6.899-6.899-9.2c-5.101-4.1-12.9-6.1-23.101-6.1c-10.6,0-18.9,2.2-24.9,6.5
			c-3.9,2.8-5.8,6.5-5.8,11.2c0,4.3,1.8,7.899,5.4,11c4.6,3.899,15.8,7.899,33.6,12.1c17.801,4.2,30.9,8.5,39.4,13
			s15.2,10.601,20,18.4s7.2,17.399,7.2,28.8c0,10.4-2.9,20.1-8.601,29.1c-5.8,9.101-13.899,15.801-24.399,20.2
			c-10.5,4.4-23.7,6.601-39.4,6.601c-22.9,0-40.4-5.301-52.7-15.9c-7.3-6.3-12.8-14.2-16.6-23.9c-4.4-11.1,3.2-23.199,15.1-24.399
			l0,0c7.9-0.8,15.6,3.6,18.6,11c2.4,5.8,5.5,10.399,9.5,13.8c6.5,5.6,15.399,8.4,26.5,8.4c11.8,0,20.6-2.5,26.6-7.5
			s8.9-10.801,8.9-17.5c0-4.301-1.3-7.9-3.8-10.9s-6.9-5.6-13.101-7.8c-4.3-1.5-14-4.101-29.3-7.9
			c-19.6-4.899-33.3-10.8-41.2-17.899c-11.1-10-16.7-22.101-16.7-36.4c0-9.2,2.6-17.8,7.8-25.9c5.2-8,12.8-14.1,22.6-18.3
			C260.8,371.5,272.701,369.4,286.6,369.4z M215.9,55.1c14,0,25.4,11.4,25.4,25.4s-11.4,25.4-25.4,25.4s-25.4-11.4-25.4-25.4
			S201.9,55.1,215.9,55.1z M215.9,824.7c14,0,25.4,11.399,25.4,25.399s-11.4,25.4-25.4,25.4s-25.4-11.4-25.4-25.4
			S201.9,824.7,215.9,824.7z"/>
	</g>
</g>
<g>
</g>
<g>
</g>
<g>
</g>
<g>
</g>
<g>
</g>
<g>
</g>
<g>
</g>
<g>
</g>
<g>
</g>
<g>
</g>
<g>
</g>
<g>
</g>
<g>
</g>
<g>
</g>
<g>
</g>
</svg>
