<?xml version="1.0" encoding="iso-8859-1"?>
<!-- Generator: Adobe Illustrator 19.0.0, SVG Export Plug-In . SVG Version: 6.00 Build 0)  -->
<svg version="1.1" id="Capa_1" xmlns="http://www.w3.org/2000/svg" xmlns:xlink="http://www.w3.org/1999/xlink" x="0px" y="0px"
	 viewBox="0 0 502.664 502.664" style="enable-background:new 0 0 502.664 502.664;" xml:space="preserve">
<g>
	<g>
		<g>
			<path d="M70.364,0v502.664H432.3V0H70.364z M243.966,457.732H109.536V316.185l46.981,43.53
				c-15.509,6.795-26.381,22.239-26.381,40.251c0,24.202,19.673,43.897,43.94,43.897s43.918-19.673,43.918-43.897
				c0-1.208-0.259-2.33-0.367-3.538c0.043-0.043,0.086-0.065,0.129-0.108l26.208,0.453
				C243.966,396.773,243.966,457.732,243.966,457.732z M198.537,396.557c0.086,1.165,0.626,2.222,0.626,3.408
				c0,13.848-11.238,25.065-25.087,25.065c-13.892,0-25.13-11.238-25.13-25.065c0-13.935,11.238-25.13,25.13-25.13
				c2.243,0,4.228,0.733,6.32,1.273c39.755-30.415,114.778-86.52,116.267-84.903C297.936,292.672,233.223,360.728,198.537,396.557z
				 M272.87,339.308c47.779-52.201,42.645-58.392,39.237-62.145c-8.499-9.405-8.499-9.405-86.089,48.577l-13.331,10.181
				c-63.677-16.998-110.723-74.915-110.723-143.985c0-82.422,66.826-149.248,149.162-149.248
				c82.465,0,149.227,66.848,149.227,149.248C400.354,266.895,345.003,328.782,272.87,339.308z"/>
			<path d="M251.127,147.544c-24.461,0-44.328,19.91-44.328,44.393c0,24.504,19.888,44.306,44.328,44.306
				c24.591,0,44.393-19.824,44.393-44.306C295.498,167.476,275.653,147.566,251.127,147.544z"/>
		</g>
	</g>
	<g>
	</g>
	<g>
	</g>
	<g>
	</g>
	<g>
	</g>
	<g>
	</g>
	<g>
	</g>
	<g>
	</g>
	<g>
	</g>
	<g>
	</g>
	<g>
	</g>
	<g>
	</g>
	<g>
	</g>
	<g>
	</g>
	<g>
	</g>
	<g>
	</g>
</g>
<g>
</g>
<g>
</g>
<g>
</g>
<g>
</g>
<g>
</g>
<g>
</g>
<g>
</g>
<g>
</g>
<g>
</g>
<g>
</g>
<g>
</g>
<g>
</g>
<g>
</g>
<g>
</g>
<g>
</g>
</svg>
