<?xml version="1.0" encoding="iso-8859-1"?>
<!-- Generator: Adobe Illustrator 16.0.0, SVG Export Plug-In . SVG Version: 6.00 Build 0)  -->
<!DOCTYPE svg PUBLIC "-//W3C//DTD SVG 1.1//EN" "http://www.w3.org/Graphics/SVG/1.1/DTD/svg11.dtd">
<svg version="1.1" id="Capa_1" xmlns="http://www.w3.org/2000/svg" xmlns:xlink="http://www.w3.org/1999/xlink" x="0px" y="0px"
	 width="49px" height="49px" viewBox="0 0 49 49" style="enable-background:new 0 0 49 49;" xml:space="preserve">
<g>
	<path d="M24.946,18.602c-4.926,0-8.936,4.009-8.936,8.936c0,4.928,4.009,8.937,8.936,8.937c4.926,0,8.936-4.009,8.936-8.937
		C33.882,22.607,29.874,18.602,24.946,18.602z M26.02,22.086c-3.504,0-6.345,2.841-6.345,6.345c0,1.712,0.685,3.259,1.789,4.4
		c-1.721-1.133-2.861-3.08-2.861-5.295c0-3.505,2.841-6.345,6.345-6.345c1.788,0,3.399,0.748,4.556,1.941
		C28.502,22.475,27.307,22.086,26.02,22.086z M6.451,36.92H0V15.475h6.451V36.92z M46.141,9.574H33.257V9.041
		c0-1.578-1.282-2.859-2.858-2.859H18.603c-1.578,0-2.859,1.281-2.859,2.859v0.533h-2.961c-0.32-1.229-1.428-2.142-2.758-2.142
		H5.736c-1.33,0-2.438,0.913-2.758,2.142H2.859C1.281,9.574,0,10.854,0,12.433v0.896h7.523c0.592,0,1.072,0.48,1.072,1.072v23.592
		c0,0.592-0.48,1.071-1.072,1.071H0v0.896c0,1.578,1.281,2.859,2.859,2.859h2.877h4.289h8.578h11.795h15.742
		c1.58,0,2.859-1.281,2.859-2.859V12.434C49,10.854,47.721,9.574,46.141,9.574z M24.946,39.33c-6.503,0-11.795-5.291-11.795-11.795
		c0-6.502,5.292-11.795,11.795-11.795c6.504,0,11.795,5.292,11.795,11.795C36.741,34.039,31.45,39.33,24.946,39.33z"/>
</g>
<g>
</g>
<g>
</g>
<g>
</g>
<g>
</g>
<g>
</g>
<g>
</g>
<g>
</g>
<g>
</g>
<g>
</g>
<g>
</g>
<g>
</g>
<g>
</g>
<g>
</g>
<g>
</g>
<g>
</g>
</svg>
