<?xml version="1.0" encoding="iso-8859-1"?>
<!-- Generator: Adobe Illustrator 16.0.0, SVG Export Plug-In . SVG Version: 6.00 Build 0)  -->
<!DOCTYPE svg PUBLIC "-//W3C//DTD SVG 1.1//EN" "http://www.w3.org/Graphics/SVG/1.1/DTD/svg11.dtd">
<svg version="1.1" id="Capa_1" xmlns="http://www.w3.org/2000/svg" xmlns:xlink="http://www.w3.org/1999/xlink" x="0px" y="0px"
	 width="470.216px" height="470.216px" viewBox="0 0 470.216 470.216" style="enable-background:new 0 0 470.216 470.216;"
	 xml:space="preserve">
<g>
	<path d="M440.521,430.243l-14.796,14.527c-34.997,34.363-91.237,33.862-125.612-1.143L120.652,260.901
		c-17.654-17.97-26.038-41.547-25.341-64.896l-32.616-33.206l104.565-102.7l34.714,35.35c21.933,0.779,43.633,9.558,60.22,26.449
		l179.46,182.732C476.023,339.627,475.526,395.867,440.521,430.243z M146.212,58.939l-85.214,83.677L3.109,83.675L88.325,0
		L146.212,58.939z M61.192,120.423l62.814-61.68L88.12,22.197L25.31,83.885L61.192,120.423z M39.189,83.936l13.425,13.665
		l19.761-19.404L58.95,64.527L39.189,83.936z M88.653,35.882L68.896,55.288l13.417,13.666l19.757-19.406L88.653,35.882z"/>
</g>
<g>
</g>
<g>
</g>
<g>
</g>
<g>
</g>
<g>
</g>
<g>
</g>
<g>
</g>
<g>
</g>
<g>
</g>
<g>
</g>
<g>
</g>
<g>
</g>
<g>
</g>
<g>
</g>
<g>
</g>
</svg>
