<?xml version="1.0" encoding="iso-8859-1"?>
<!-- Generator: Adobe Illustrator 16.0.0, SVG Export Plug-In . SVG Version: 6.00 Build 0)  -->
<!DOCTYPE svg PUBLIC "-//W3C//DTD SVG 1.1//EN" "http://www.w3.org/Graphics/SVG/1.1/DTD/svg11.dtd">
<svg version="1.1" id="Capa_1" xmlns="http://www.w3.org/2000/svg" xmlns:xlink="http://www.w3.org/1999/xlink" x="0px" y="0px"
	 width="34.482px" height="34.482px" viewBox="0 0 34.482 34.482" style="enable-background:new 0 0 34.482 34.482;"
	 xml:space="preserve">
<g>
	<path d="M25.043,0H9.439c-1.3,0-2.364,1.063-2.364,2.364v7.483v14.789v7.483c0,1.301,1.064,2.363,2.364,2.363h15.604
		c1.3,0,2.364-1.062,2.364-2.363v-7.483V9.847V2.364C27.407,1.063,26.343,0,25.043,0z M12.804,31.76h-2.548
		c-0.469,0-0.85-0.38-0.85-0.849c0-0.47,0.381-0.851,0.85-0.851h2.548c0.469,0,0.85,0.381,0.85,0.851
		C13.654,31.38,13.273,31.76,12.804,31.76z M12.804,28.52h-2.548c-0.469,0-0.85-0.381-0.85-0.85s0.381-0.85,0.85-0.85h2.548
		c0.469,0,0.85,0.381,0.85,0.85S13.273,28.52,12.804,28.52z M12.804,25.28h-2.548c-0.469,0-0.85-0.38-0.85-0.849
		c0-0.471,0.381-0.851,0.85-0.851h2.548c0.469,0,0.85,0.38,0.85,0.851C13.654,24.9,13.273,25.28,12.804,25.28z M12.804,22.041
		h-2.548c-0.469,0-0.85-0.381-0.85-0.85s0.381-0.851,0.85-0.851h2.548c0.469,0,0.85,0.382,0.85,0.851S13.273,22.041,12.804,22.041z
		 M18.515,31.76h-2.547c-0.47,0-0.85-0.38-0.85-0.849c0-0.47,0.38-0.851,0.85-0.851h2.547c0.47,0,0.85,0.381,0.85,0.851
		C19.364,31.38,18.984,31.76,18.515,31.76z M18.515,28.52h-2.547c-0.47,0-0.85-0.381-0.85-0.85s0.38-0.85,0.85-0.85h2.547
		c0.47,0,0.85,0.381,0.85,0.85S18.984,28.52,18.515,28.52z M18.515,25.28h-2.547c-0.47,0-0.85-0.38-0.85-0.849
		c0-0.471,0.38-0.851,0.85-0.851h2.547c0.47,0,0.85,0.38,0.85,0.851C19.364,24.9,18.984,25.28,18.515,25.28z M18.515,22.041h-2.547
		c-0.47,0-0.85-0.381-0.85-0.85s0.38-0.851,0.85-0.851h2.547c0.47,0,0.85,0.382,0.85,0.851S18.984,22.041,18.515,22.041z
		 M24.226,31.76h-2.549c-0.469,0-0.85-0.38-0.85-0.849c0-0.47,0.381-0.851,0.85-0.851h2.549c0.469,0,0.85,0.381,0.85,0.851
		C25.075,31.38,24.694,31.76,24.226,31.76z M24.226,28.52h-2.549c-0.469,0-0.85-0.381-0.85-0.85s0.381-0.85,0.85-0.85h2.549
		c0.469,0,0.85,0.381,0.85,0.85S24.694,28.52,24.226,28.52z M24.226,25.28h-2.549c-0.469,0-0.85-0.38-0.85-0.849
		c0-0.471,0.381-0.851,0.85-0.851h2.549c0.469,0,0.85,0.38,0.85,0.851C25.075,24.9,24.694,25.28,24.226,25.28z M24.226,22.041
		h-2.549c-0.469,0-0.85-0.381-0.85-0.85s0.381-0.851,0.85-0.851h2.549c0.469,0,0.85,0.382,0.85,0.851S24.694,22.041,24.226,22.041z
		 M25.126,18.38H9.356V2.771h15.77V18.38z"/>
</g>
<g>
</g>
<g>
</g>
<g>
</g>
<g>
</g>
<g>
</g>
<g>
</g>
<g>
</g>
<g>
</g>
<g>
</g>
<g>
</g>
<g>
</g>
<g>
</g>
<g>
</g>
<g>
</g>
<g>
</g>
</svg>
