<?xml version="1.0" encoding="iso-8859-1"?>
<!-- Generator: Adobe Illustrator 16.0.0, SVG Export Plug-In . SVG Version: 6.00 Build 0)  -->
<!DOCTYPE svg PUBLIC "-//W3C//DTD SVG 1.1//EN" "http://www.w3.org/Graphics/SVG/1.1/DTD/svg11.dtd">
<svg version="1.1" id="Capa_1" xmlns="http://www.w3.org/2000/svg" xmlns:xlink="http://www.w3.org/1999/xlink" x="0px" y="0px"
	 width="502px" height="502px" viewBox="0 0 502 502" style="enable-background:new 0 0 502 502;" xml:space="preserve">
<g>
	<g>
		<path d="M0,94.122v351.562h502V94.122H0z M462.602,135.534v87.578l-18.487-4.17l-24.433-83.408H462.602z M291.257,135.534H403.35
			l23.275,79.465L287.4,183.6h-2.93L291.257,135.534z M249.044,135.534l-6.786,48.066H121.23l20.873-48.066H249.044z
			 M39.397,135.534h85.618L104.142,183.6h-2.593l-62.151-35.207L39.397,135.534L39.397,135.534z M166.882,422.463H37.308v-22.988
			h129.574V422.463z M216.44,366.467H39.397v-77.508l109.417-21.73l26.68,67.365h45.446L216.44,366.467z M394.506,428.385h-36.225
			V392.16h36.225V428.385z M455.81,428.385h-36.225V392.16h36.225V428.385z M462.602,366.467H258.652l4.5-31.873h199.448
			L462.602,366.467L462.602,366.467z M290.246,292.797c0.21,3.549-1.402,7.007-4.35,9.115c-1.812,1.295-3.943,1.948-6.08,1.948
			c-1.824,0-3.652-0.478-5.291-1.438l-25.149-14.769l-28.567,5.888c-2.211,0.455-4.446,0.151-6.421-0.744h-10.49l-29.052-73.354
			L39.397,246.346v-79.939l58.02,32.868h142.628l-5.004,35.444l18.393-31.412c2.188-3.736,6.448-5.734,10.724-5.029
			c4.271,0.707,7.663,3.973,8.532,8.213l5.061,24.72l4.509-31.936h3.397l176.945,39.802v53.72H290.246L290.246,292.797z"/>
		<path d="M317.19,56.316H184.809c-16.519,0-30.117,12.413-32.034,28.416h196.45C347.309,68.729,333.71,56.316,317.19,56.316z"/>
		<polygon points="218.352,283.306 250.854,276.609 279.469,293.412 262.104,208.586 		"/>
	</g>
</g>
<g>
</g>
<g>
</g>
<g>
</g>
<g>
</g>
<g>
</g>
<g>
</g>
<g>
</g>
<g>
</g>
<g>
</g>
<g>
</g>
<g>
</g>
<g>
</g>
<g>
</g>
<g>
</g>
<g>
</g>
</svg>
