<?xml version="1.0" encoding="iso-8859-1"?>
<!-- Generator: Adobe Illustrator 18.0.0, SVG Export Plug-In . SVG Version: 6.00 Build 0)  -->
<!DOCTYPE svg PUBLIC "-//W3C//DTD SVG 1.1//EN" "http://www.w3.org/Graphics/SVG/1.1/DTD/svg11.dtd">
<svg version="1.1" id="Capa_1" xmlns="http://www.w3.org/2000/svg" xmlns:xlink="http://www.w3.org/1999/xlink" x="0px" y="0px"
	 viewBox="0 0 430.091 430.091" style="enable-background:new 0 0 430.091 430.091;" xml:space="preserve">
<g>
	<path d="M269.723,47.545H160.368c-3.844,0-6.962,3.119-6.962,6.965v321.07c0,3.846,3.118,6.965,6.962,6.965h109.355
		c3.844,0,6.962-3.119,6.962-6.965V54.51C276.685,50.664,273.567,47.545,269.723,47.545z M215.045,321.378
		c-13.439,0-24.333-10.895-24.333-24.333s10.894-24.333,24.333-24.333c13.439,0,24.333,10.895,24.333,24.333
		S228.484,321.378,215.045,321.378z M259.798,197.172c0,3.842-3.119,6.962-6.968,6.962h-75.569c-3.849,0-6.968-3.12-6.968-6.962
		v-6.962c0-3.855,3.119-6.972,6.968-6.972h75.569c3.849,0,6.968,3.117,6.968,6.972V197.172z M259.798,162.349
		c0,3.844-3.119,6.963-6.968,6.963h-75.569c-3.849,0-6.968-3.119-6.968-6.963v-6.972c0-3.844,3.119-6.963,6.968-6.963h75.569
		c3.849,0,6.968,3.119,6.968,6.963V162.349z M259.798,127.517c0,3.851-3.119,6.969-6.968,6.969h-75.569
		c-3.849,0-6.968-3.117-6.968-6.969v-6.962c0-3.843,3.119-6.962,6.968-6.962h75.569c3.849,0,6.968,3.119,6.968,6.962V127.517z
		 M259.798,92.696c0,3.843-3.119,6.962-6.968,6.962h-75.569c-3.849,0-6.968-3.119-6.968-6.962v-6.964
		c0-3.852,3.119-6.969,6.968-6.969h75.569c3.849,0,6.968,3.117,6.968,6.969V92.696z"/>
	<path d="M430.09,84.614c0-3.284-2.773-6.202-6.196-6.511c-32.422-2.948-64.846-5.896-97.269-8.834
		c-0.357-0.034-1.369-0.005-2.45,0.303l-37.908,9.574v297.806l39.226,5.548c0.477,0.103,1.093,0,1.131-0.002
		c32.423-2.946,64.847-6.228,97.27-9.17c3.422-0.314,6.197-3.226,6.197-6.512C430.088,291.084,430.09,160.353,430.09,84.614z
		 M335.454,105.018c0-3.519,2.773-6.179,6.196-5.939c22.407,1.583,44.813,3.167,67.221,4.75c3.423,0.24,6.195,3.126,6.195,6.455
		v6.012c0,3.317-2.772,5.858-6.195,5.665c-22.407-1.282-44.814-2.563-67.221-3.836c-3.422-0.197-6.196-3.214-6.196-6.731V105.018z
		 M415.066,206.533c0,3.316-2.773,6.046-6.196,6.076c-22.407,0.243-44.814,0.489-67.221,0.729c-3.422,0.034-6.196-2.785-6.196-6.31
		v-6.372c0-3.526,2.773-6.37,6.196-6.365c22.406,0.061,44.813,0.132,67.221,0.186c3.423,0.013,6.196,2.71,6.196,6.038V206.533z
		 M408.87,182.391c-22.407-0.264-44.814-0.526-67.221-0.793c-3.422-0.04-6.196-2.925-6.196-6.452v-6.371
		c0-3.525,2.773-6.307,6.196-6.217c22.407,0.562,44.813,1.131,67.221,1.705c3.423,0.084,6.195,2.848,6.195,6.177
		c0,2.406,0.001,3.608,0.001,6.014C415.066,179.771,412.293,182.436,408.87,182.391z M415.066,146.376
		c0,3.316-2.773,5.912-6.196,5.801c-22.407-0.773-44.814-1.547-67.221-2.318c-3.422-0.115-6.196-3.068-6.196-6.589v-6.377
		c0-3.52,2.773-6.235,6.196-6.071c22.407,1.067,44.813,2.147,67.221,3.226c3.423,0.165,6.196,2.983,6.196,6.312V146.376z"/>
	<path d="M103.467,69.269c-32.424,2.938-64.848,5.886-97.271,8.834c-3.422,0.309-6.195,3.227-6.195,6.511
		c0,75.739,0.002,206.471-0.001,282.202c0,3.286,2.774,6.198,6.196,6.512c32.424,2.941,64.848,6.224,97.271,9.17
		c0.037,0.002,0.653,0.105,1.131,0.002l39.226-5.548V79.146l-37.908-9.574C104.834,69.264,103.822,69.235,103.467,69.269z
		 M94.637,207.028c0,3.524-2.773,6.344-6.195,6.31c-22.407-0.239-44.814-0.485-67.222-0.729c-3.422-0.03-6.196-2.76-6.196-6.076
		v-6.018c0-3.328,2.773-6.025,6.196-6.038c22.408-0.055,44.815-0.125,67.222-0.186c3.422-0.005,6.195,2.839,6.195,6.365V207.028z
		 M94.637,175.146c0,3.527-2.773,6.412-6.195,6.452c-22.407,0.267-44.814,0.529-67.222,0.793c-3.422,0.045-6.196-2.62-6.196-5.938
		c0-2.405,0.001-3.607,0.001-6.014c0-3.329,2.772-6.093,6.195-6.177c22.408-0.574,44.814-1.144,67.222-1.705
		c3.422-0.09,6.195,2.691,6.195,6.217V175.146z M94.637,143.27c0,3.521-2.773,6.474-6.195,6.589
		c-22.407,0.771-44.814,1.545-67.222,2.318c-3.422,0.111-6.196-2.484-6.196-5.801v-6.017c0-3.328,2.773-6.146,6.196-6.312
		c22.408-1.078,44.814-2.158,67.222-3.226c3.422-0.164,6.195,2.552,6.195,6.071V143.27z M94.637,111.393
		c0,3.518-2.773,6.534-6.195,6.731c-22.407,1.273-44.814,2.554-67.222,3.836c-3.422,0.193-6.195-2.348-6.195-5.665v-6.012
		c0-3.329,2.772-6.215,6.195-6.455c22.408-1.583,44.814-3.167,67.222-4.75c3.422-0.239,6.195,2.421,6.195,5.939V111.393z"/>
</g>
<g>
</g>
<g>
</g>
<g>
</g>
<g>
</g>
<g>
</g>
<g>
</g>
<g>
</g>
<g>
</g>
<g>
</g>
<g>
</g>
<g>
</g>
<g>
</g>
<g>
</g>
<g>
</g>
<g>
</g>
</svg>
