<?xml version="1.0" encoding="iso-8859-1"?>
<!-- Generator: Adobe Illustrator 16.0.0, SVG Export Plug-In . SVG Version: 6.00 Build 0)  -->
<!DOCTYPE svg PUBLIC "-//W3C//DTD SVG 1.1//EN" "http://www.w3.org/Graphics/SVG/1.1/DTD/svg11.dtd">
<svg version="1.1" id="Capa_1" xmlns="http://www.w3.org/2000/svg" xmlns:xlink="http://www.w3.org/1999/xlink" x="0px" y="0px"
	 width="369.819px" height="369.819px" viewBox="0 0 369.819 369.819" style="enable-background:new 0 0 369.819 369.819;"
	 xml:space="preserve">
<g>
	<path d="M7.392,0H73.29v369.819H49.081V24.205H7.392V0z M362.421,72.277v148.775l-28.58,27.727h-0.252v-37.308h-8.315v37.308
		h-21.688v-73.62h-85.73v-71.61h-76.654v79.886h76.654v-0.205h77.661v65.549h-31.269v-37.308h-8.064v37.308h-22.448v-37.308h-8.064
		v37.308h-24.965v-37.308h-8.064v37.308h-14.626V233.15h-66.063v15.628h-18.49V53.792c0,0,220.208,0,245.085,0
		C363.43,53.792,362.421,72.277,362.421,72.277z M310.645,103.543h-48.409v48.419h48.409V103.543z M303.689,109.938H268.45v35.24
		h35.239V109.938L303.689,109.938z M213.183,128.512v-3.278h-6.117v-10.993h-56.082v10.993h-6.124v3.278h6.124v7.571h-6.124v3.277
		h6.124v8.219h-6.124v3.278h6.124v6.555h-6.124v3.278h6.124v9.639h56.082v-9.639h6.117v-3.278h-6.117v-6.555h6.117v-3.278h-6.117
		v-8.224h6.117v-3.278h-6.117v-7.571h6.117V128.512z M255.965,306.782h-14.228v-14.709h-4.552v-16.809h-11.21v16.809h-4.552v14.709
		h-14.228v5.603h-54.279v11.207h54.279v3.502h48.769v-3.502h44.039v-11.207h-44.039V306.782z"/>
</g>
<g>
</g>
<g>
</g>
<g>
</g>
<g>
</g>
<g>
</g>
<g>
</g>
<g>
</g>
<g>
</g>
<g>
</g>
<g>
</g>
<g>
</g>
<g>
</g>
<g>
</g>
<g>
</g>
<g>
</g>
</svg>
