<?xml version="1.0" encoding="iso-8859-1"?>
<!-- Generator: Adobe Illustrator 18.0.0, SVG Export Plug-In . SVG Version: 6.00 Build 0)  -->
<!DOCTYPE svg PUBLIC "-//W3C//DTD SVG 1.1//EN" "http://www.w3.org/Graphics/SVG/1.1/DTD/svg11.dtd">
<svg version="1.1" id="Capa_1" xmlns="http://www.w3.org/2000/svg" xmlns:xlink="http://www.w3.org/1999/xlink" x="0px" y="0px"
	 viewBox="0 0 272.432 272.432" style="enable-background:new 0 0 272.432 272.432;" xml:space="preserve">
<g>
	<path d="M230.479,5.031H41.953C18.82,5.031,0,23.851,0,46.984v115.058v16.047v47.358C0,248.58,18.82,267.4,41.953,267.4h188.525
		c23.133,0,41.953-18.82,41.953-41.953v-47.358v-16.047V46.984C272.432,23.851,253.611,5.031,230.479,5.031z M15,46.984
		c0-14.862,12.091-26.953,26.953-26.953h188.525c14.862,0,26.953,12.091,26.953,26.953v115.058v16.047
		c0,14.862-12.091,26.953-26.953,26.953H41.953C27.091,205.042,15,192.951,15,178.089v-16.047V46.984z M230.479,252.4H41.953
		C27.091,252.4,15,240.309,15,225.447v-15.242c7.296,6.133,16.698,9.837,26.953,9.837h188.525c10.255,0,19.657-3.704,26.953-9.837
		v15.242C257.432,240.309,245.341,252.4,230.479,252.4z"/>
	<path d="M134.989,84.622c0.151,0.005,0.304,0.007,0.455,0.007c5.256,0,10.936-2.936,14.472-7.477
		c3.612-4.636,5.249-10.231,4.491-15.351c-0.287-1.938-2.024-3.327-3.973-3.191c-5.118,0.359-10.9,3.455-14.383,7.701
		c-3.802,4.631-5.534,10.328-4.634,15.239C131.736,83.288,133.224,84.567,134.989,84.622z"/>
	<path d="M124.234,161.222l0.188,0.001c3.887,0,6.584-1.205,8.554-2.084c1.622-0.725,2.602-1.162,4.742-1.172
		c1.959,0,2.83,0.399,4.41,1.125c1.949,0.894,4.618,2.119,8.526,2.119l0.171-0.001c10.184-0.086,16.598-9.837,19.692-14.543
		c2.605-3.989,3.642-6.118,5.552-10.373c0.847-1.888,0.877-4.041,0.082-5.952c-0.795-1.91-2.343-3.407-4.278-4.137
		c-5.399-2.036-7.085-7.903-5.547-12.18c0.746-2.083,2.184-3.723,4.275-4.875c1.938-1.068,3.307-2.938,3.737-5.11
		c0.431-2.172-0.12-4.423-1.505-6.15c-5.328-6.647-13.034-10.616-20.611-10.616c-5.159,0-8.763,1.367-11.395,2.365
		c-1.631,0.618-2.518,0.941-3.298,0.941c-1.061,0-2.41-0.483-4.119-1.095c-2.749-0.985-6.171-2.211-10.621-2.211
		c-8.581,0-17.179,5.037-22.448,13.161c-1.979,3.068-3.353,6.774-4.085,11.029c-1.932,11.335,1.263,24.728,8.55,35.83
		C107.531,151.435,113.911,161.135,124.234,161.222z M111.042,113.995c0.38-2.209,1.039-4.086,1.895-5.413
		c2.485-3.832,6.354-6.308,9.854-6.308c1.845,0,3.486,0.588,5.563,1.332c2.455,0.879,5.511,1.974,9.177,1.974
		c3.565,0,6.366-1.062,8.616-1.916c2.048-0.777,3.666-1.39,6.076-1.39c1.035,0,2.116,0.225,3.189,0.644
		c-1.343,1.827-2.42,3.85-3.204,6.039c-3.55,9.871-0.326,20.654,7.258,27.095c-0.424,0.722-0.902,1.487-1.494,2.393
		c-4.85,7.374-6.909,7.763-7.317,7.766c-0.581,0-0.9-0.123-2.271-0.753c-2.162-0.992-5.429-2.491-10.665-2.491l-0.153,0.001
		c-5.221,0.026-8.522,1.501-10.705,2.476c-1.439,0.643-1.808,0.781-2.438,0.781h-0.05c-0.7-0.006-2.787-0.717-7.029-7.167
		C112.166,131.168,109.753,121.561,111.042,113.995z"/>
</g>
<g>
</g>
<g>
</g>
<g>
</g>
<g>
</g>
<g>
</g>
<g>
</g>
<g>
</g>
<g>
</g>
<g>
</g>
<g>
</g>
<g>
</g>
<g>
</g>
<g>
</g>
<g>
</g>
<g>
</g>
</svg>
