<?xml version="1.0" encoding="iso-8859-1"?>
<!-- Generator: Adobe Illustrator 16.0.0, SVG Export Plug-In . SVG Version: 6.00 Build 0)  -->
<!DOCTYPE svg PUBLIC "-//W3C//DTD SVG 1.1//EN" "http://www.w3.org/Graphics/SVG/1.1/DTD/svg11.dtd">
<svg version="1.1" id="Capa_1" xmlns="http://www.w3.org/2000/svg" xmlns:xlink="http://www.w3.org/1999/xlink" x="0px" y="0px"
	 width="871.801px" height="871.801px" viewBox="0 0 871.801 871.801" style="enable-background:new 0 0 871.801 871.801;"
	 xml:space="preserve">
<g>
	<path d="M735.301,821.9V204.8c0-19.9-7.9-39-22-53L583.6,22c-14.1-14.1-33.1-22-53-22H186.5c-27.6,0-50,22.4-50,50v771.801
		c0,27.6,22.4,50,50,50h498.801C712.9,871.9,735.301,849.5,735.301,821.9z M614.699,354.1c27.602,0,50,22.399,50,50v62.3H550.4
		V354.1H614.699z M664.699,650.4H207.1v-134h457.599V650.4L664.699,650.4z M501.4,466.4h-131V354.1h131V466.4z M207.1,404.1
		c0-27.601,22.4-50,50-50h64.3v112.3H207.1V404.1z M207.1,754.199V700.4h116.3v103.799h-66.3
		C229.5,804.199,207.1,781.801,207.1,754.199z M368.4,700.4h135v103.799h-135V700.4z M664.699,754.199c0,27.602-22.398,50-50,50
		H548.4V700.4h116.299V754.199z"/>
</g>
<g>
</g>
<g>
</g>
<g>
</g>
<g>
</g>
<g>
</g>
<g>
</g>
<g>
</g>
<g>
</g>
<g>
</g>
<g>
</g>
<g>
</g>
<g>
</g>
<g>
</g>
<g>
</g>
<g>
</g>
</svg>
