<?xml version="1.0" encoding="iso-8859-1"?>
<!-- Generator: Adobe Illustrator 19.0.0, SVG Export Plug-In . SVG Version: 6.00 Build 0)  -->
<svg version="1.1" id="Capa_1" xmlns="http://www.w3.org/2000/svg" xmlns:xlink="http://www.w3.org/1999/xlink" x="0px" y="0px"
	 viewBox="0 0 448 448" style="enable-background:new 0 0 448 448;" xml:space="preserve">
<g>
	<g>
		<rect x="344" y="144" width="16" height="48"/>
	</g>
</g>
<g>
	<g>
		<rect x="344" y="224" width="16" height="79.736"/>
	</g>
</g>
<g>
	<g>
		<path d="M293.685,82.221L280,0H136l-13.718,82.23C102.505,88.162,88,106.291,88,128v192c0,21.709,14.505,39.838,34.282,45.77
			L136,448h144l13.685-82.221C313.478,359.858,328,341.721,328,320V128C328,106.279,313.478,88.142,293.685,82.221z M149.553,16
			h116.89l10.753,64H138.854L149.553,16z M266.443,432h-116.89l-10.699-64h138.342L266.443,432z M312,320c0,17.645-14.355,32-32,32
			h-0.115H136.178H136c-17.645,0-32-14.355-32-32V128c0-17.646,14.355-32,32-32h0.178h143.706H280c17.645,0,32,14.354,32,32V320z"/>
	</g>
</g>
<g>
</g>
<g>
</g>
<g>
</g>
<g>
</g>
<g>
</g>
<g>
</g>
<g>
</g>
<g>
</g>
<g>
</g>
<g>
</g>
<g>
</g>
<g>
</g>
<g>
</g>
<g>
</g>
<g>
</g>
</svg>
