<?xml version="1.0" encoding="iso-8859-1"?>
<!-- Generator: Adobe Illustrator 16.0.0, SVG Export Plug-In . SVG Version: 6.00 Build 0)  -->
<!DOCTYPE svg PUBLIC "-//W3C//DTD SVG 1.1//EN" "http://www.w3.org/Graphics/SVG/1.1/DTD/svg11.dtd">
<svg version="1.1" id="Capa_1" xmlns="http://www.w3.org/2000/svg" xmlns:xlink="http://www.w3.org/1999/xlink" x="0px" y="0px"
	 width="569.411px" height="569.411px" viewBox="0 0 569.411 569.411" style="enable-background:new 0 0 569.411 569.411;"
	 xml:space="preserve">
<g>
	<g>
		<path d="M439.161,288.329H341.52v-7.254c0-16.028-12.987-29.017-29.017-29.017H305.2v-10.625c0-9.486,7.714-17.201,17.199-17.201
			h138.686c32.079,0,58.188-26.106,58.188-58.185v-65.484c0-32.079-26.108-58.187-58.188-58.187H188.827v-9.604
			c0-6.724-5.445-12.167-12.168-12.167H84.443c-5.592,0-10.096,3.831-11.518,8.964H33.209c-12.358,0-22.414,10.057-22.414,22.413
			v21.773c0,12.358,10.055,22.414,22.414,22.414h39.715c1.419,5.133,5.924,8.966,11.518,8.966h92.218
			c6.724,0,12.168-5.443,12.168-12.167v-9.606h272.256c9.486,0,17.201,7.715,17.201,17.201v65.482
			c0,9.486-7.715,17.199-17.201,17.199H322.399c-32.079,0-58.184,26.105-58.184,58.187v10.625h-7.305
			c-16.028,0-29.017,12.989-29.017,29.017v7.255h-97.663C58.308,288.327,0,346.633,0,418.567c0,71.937,58.308,130.24,130.232,130.24
			c55.702,0,103.091-35.023,121.714-84.185h65.521c18.602,49.16,66.011,84.185,121.694,84.185c71.944,0,130.25-58.305,130.25-130.24
			C569.409,346.635,511.104,288.329,439.161,288.329z M72.275,75.678H33.209c-1.061,0-1.92-0.861-1.92-1.922V51.984
			c0-1.061,0.859-1.922,1.92-1.922h39.064v25.616H72.275z M159.188,433.368h-19.641v19.644c0,9.565-7.746,17.311-17.312,17.311
			c-9.555,0-17.309-7.744-17.309-17.311v-19.644H85.293c-9.555,0-17.309-7.744-17.309-17.311c0-9.555,7.754-17.312,17.309-17.312
			h19.633v-19.62c0-9.564,7.754-17.31,17.309-17.31c9.566,0,17.312,7.744,17.312,17.31v19.62h19.641
			c9.555,0,17.31,7.757,17.31,17.312C176.499,425.624,168.743,433.368,159.188,433.368z M397.814,433.588
			c-12.049,0-21.813-9.777-21.813-21.824c0-12.037,9.768-21.805,21.813-21.805c12.048,0,21.804,9.768,21.804,21.805
			C419.618,423.811,409.862,433.588,397.814,433.588z M446.385,482.167c-12.036,0-21.812-9.774-21.812-21.812
			c0-12.059,9.774-21.812,21.812-21.812c12.048,0,21.824,9.756,21.824,21.812C468.209,472.393,458.431,482.167,446.385,482.167z
			 M446.385,384.997c-12.036,0-21.812-9.756-21.812-21.803s9.774-21.813,21.812-21.813c12.048,0,21.824,9.768,21.824,21.813
			S458.431,384.997,446.385,384.997z M494.966,433.588c-12.049,0-21.804-9.777-21.804-21.824c0-12.037,9.755-21.805,21.804-21.805
			c12.046,0,21.813,9.768,21.813,21.805C516.777,423.811,507.012,433.588,494.966,433.588z"/>
	</g>
</g>
<g>
</g>
<g>
</g>
<g>
</g>
<g>
</g>
<g>
</g>
<g>
</g>
<g>
</g>
<g>
</g>
<g>
</g>
<g>
</g>
<g>
</g>
<g>
</g>
<g>
</g>
<g>
</g>
<g>
</g>
</svg>
