<?xml version="1.0" encoding="iso-8859-1"?>
<!-- Generator: Adobe Illustrator 16.0.0, SVG Export Plug-In . SVG Version: 6.00 Build 0)  -->
<!DOCTYPE svg PUBLIC "-//W3C//DTD SVG 1.1//EN" "http://www.w3.org/Graphics/SVG/1.1/DTD/svg11.dtd">
<svg version="1.1" id="Capa_1" xmlns="http://www.w3.org/2000/svg" xmlns:xlink="http://www.w3.org/1999/xlink" x="0px" y="0px"
	 width="535.5px" height="535.5px" viewBox="0 0 535.5 535.5" style="enable-background:new 0 0 535.5 535.5;" xml:space="preserve"
	>
<g>
	<g id="live-help">
		<path d="M446.25,0h-357c-28.05,0-51,22.95-51,51v357c0,28.05,22.95,51,51,51h102l76.5,76.5l76.5-76.5h102c28.05,0,51-22.95,51-51
			V51C497.25,22.95,474.3,0,446.25,0z M293.25,408h-51v-51h51V408z M346.8,211.65l-22.95,22.95c-20.399,17.85-30.6,33.15-30.6,71.4
			h-51v-12.75c0-28.05,10.2-53.55,30.6-71.4l30.601-33.15c10.2-7.65,15.3-20.4,15.3-35.7c0-28.05-22.95-51-51-51s-51,22.95-51,51
			h-51c0-56.1,45.9-102,102-102c56.1,0,102,45.9,102,102C369.75,175.95,359.55,196.35,346.8,211.65z"/>
	</g>
</g>
<g>
</g>
<g>
</g>
<g>
</g>
<g>
</g>
<g>
</g>
<g>
</g>
<g>
</g>
<g>
</g>
<g>
</g>
<g>
</g>
<g>
</g>
<g>
</g>
<g>
</g>
<g>
</g>
<g>
</g>
</svg>
