<?xml version="1.0" encoding="iso-8859-1"?>
<!-- Generator: Adobe Illustrator 18.1.1, SVG Export Plug-In . SVG Version: 6.00 Build 0)  -->
<svg version="1.1" id="Capa_1" xmlns="http://www.w3.org/2000/svg" xmlns:xlink="http://www.w3.org/1999/xlink" x="0px" y="0px"
	 viewBox="0 0 89.471 89.471" style="enable-background:new 0 0 89.471 89.471;" xml:space="preserve">
<g>
	<g>
		<g>
			<path style="fill:#010002;" d="M87.682,55.773H71.148V32.235c1.31-0.533,2.237-1.807,2.237-3.307
				c0-1.976-1.603-3.579-3.579-3.579s-3.579,1.603-3.579,3.579c0,1.5,0.927,2.774,2.237,3.307v23.538H21.008V32.235
				c1.31-0.533,2.237-1.807,2.237-3.307c0-1.976-1.603-3.579-3.579-3.579s-3.579,1.603-3.579,3.579c0,1.5,0.927,2.774,2.237,3.307
				v23.538H1.789C0.805,55.773,0,56.578,0,57.562v14.315c0,0.981,0.805,1.789,1.789,1.789h5.368v2.684h10.737v-2.684h53.794v2.684
				h10.737v-2.684h5.257c0.984,0,1.789-0.809,1.789-1.789V57.562C89.471,56.578,88.666,55.773,87.682,55.773z M76.888,69.863
				c0,0.705-0.58,1.285-1.285,1.285H13.868c-0.705,0-1.285-0.58-1.285-1.285V59.574c0-0.705,0.58-1.285,1.285-1.285h61.735
				c0.705,0,1.285,0.58,1.285,1.285V69.863z"/>
		</g>
		<g>
			<circle style="fill:#010002;" cx="19.666" cy="64.72" r="1.621"/>
		</g>
		<g>
			<circle style="fill:#010002;" cx="26.831" cy="64.72" r="1.621"/>
		</g>
		<g>
			<circle style="fill:#010002;" cx="33.992" cy="64.72" r="1.621"/>
		</g>
		<g>
			<circle style="fill:#010002;" cx="41.153" cy="64.72" r="1.621"/>
		</g>
		<g>
			<circle style="fill:#010002;" cx="48.318" cy="64.72" r="1.621"/>
		</g>
		<g>
			<circle style="fill:#010002;" cx="55.479" cy="64.72" r="1.621"/>
		</g>
		<g>
			<circle style="fill:#010002;" cx="62.641" cy="64.72" r="1.621"/>
		</g>
		<g>
			<circle style="fill:#010002;" cx="69.805" cy="64.72" r="1.621"/>
		</g>
		<g>
			<path style="fill:#010002;" d="M19.666,16.116c5.393,0,10.561,2.301,14.179,6.302l2.222-2.008
				c-4.184-4.635-10.16-7.29-16.402-7.29S7.448,15.776,3.264,20.41l2.222,2.004C9.105,18.417,14.272,16.116,19.666,16.116z"/>
		</g>
		<g>
			<path style="fill:#010002;" d="M7.433,24.179l2.222,2.011c2.555-2.831,6.206-4.449,10.01-4.449s7.455,1.618,10.003,4.449
				l2.222-2.008c-3.121-3.457-7.576-5.436-12.229-5.436C15.01,18.75,10.558,20.729,7.433,24.179z"/>
		</g>
		<g>
			<path style="fill:#010002;" d="M69.805,16.116c5.393,0,10.561,2.301,14.179,6.302l2.222-2.008
				c-4.184-4.635-10.16-7.29-16.402-7.29s-12.218,2.656-16.402,7.29l2.222,2.004C59.248,18.417,64.412,16.116,69.805,16.116z"/>
		</g>
		<g>
			<path style="fill:#010002;" d="M57.573,24.179l2.222,2.011c2.555-2.831,6.202-4.449,10.01-4.449
				c3.808,0,7.455,1.618,10.003,4.449l2.222-2.008c-3.121-3.457-7.573-5.436-12.229-5.436C65.149,18.75,60.694,20.729,57.573,24.179
				z"/>
		</g>
	</g>
</g>
<g>
</g>
<g>
</g>
<g>
</g>
<g>
</g>
<g>
</g>
<g>
</g>
<g>
</g>
<g>
</g>
<g>
</g>
<g>
</g>
<g>
</g>
<g>
</g>
<g>
</g>
<g>
</g>
<g>
</g>
</svg>
