<?xml version="1.0" encoding="iso-8859-1"?>
<!-- Generator: Adobe Illustrator 17.1.0, SVG Export Plug-In . SVG Version: 6.00 Build 0)  -->
<!DOCTYPE svg PUBLIC "-//W3C//DTD SVG 1.1//EN" "http://www.w3.org/Graphics/SVG/1.1/DTD/svg11.dtd">
<svg version="1.1" id="Capa_1" xmlns="http://www.w3.org/2000/svg" xmlns:xlink="http://www.w3.org/1999/xlink" x="0px" y="0px"
	 viewBox="0 0 262.643 262.643" style="enable-background:new 0 0 262.643 262.643;" xml:space="preserve">
<g>
	<path style="fill:#000002;" d="M262.642,47.501c0-9.649-7.851-17.5-17.5-17.5H17.5c-9.649,0-17.5,7.851-17.5,17.5v167.641
		c0,9.649,7.851,17.5,17.5,17.5h227.643c9.649,0,17.5-7.851,17.5-17.5L262.642,47.501z M245.143,217.642H17.5
		c-1.355,0-2.5-1.145-2.5-2.5V47.501c0-1.355,1.145-2.5,2.5-2.5h227.642c1.355,0,2.5,1.145,2.5,2.5l0.001,167.641
		C247.643,216.497,246.499,217.642,245.143,217.642z"/>
	<path style="fill:#000002;" d="M208.33,74.271H54.313c-6.341,0-11.5,5.159-11.5,11.5v46.885c0,6.341,5.159,11.5,11.5,11.5h12.5
		v12.274c0,6.341,5.159,11.5,11.5,11.5h14.5v8.942c0,6.342,5.159,11.5,11.5,11.5h54.016c6.341,0,11.5-5.158,11.5-11.5v-8.942h14.5
		c6.341,0,11.5-5.159,11.5-11.5v-12.274h12.5c6.341,0,11.5-5.159,11.5-11.5V85.771C219.83,79.43,214.67,74.271,208.33,74.271z
		 M206.83,131.156h-12.5c-6.341,0-11.5,5.159-11.5,11.5v12.274h-14.5c-6.341,0-11.5,5.159-11.5,11.5v8.942h-51.016v-8.942
		c0-6.341-5.159-11.5-11.5-11.5h-14.5v-12.274c0-6.341-5.159-11.5-11.5-11.5h-12.5V87.271H206.83V131.156z"/>
	<path style="fill:#000002;" d="M79.821,123.492c3.59,0,6.5-2.91,6.5-6.5v-20.5c0-3.59-2.91-6.5-6.5-6.5c-3.59,0-6.5,2.91-6.5,6.5
		v20.5C73.321,120.581,76.231,123.492,79.821,123.492z"/>
	<path style="fill:#000002;" d="M105.571,123.492c3.59,0,6.501-2.91,6.501-6.5v-20.5c0-3.59-2.911-6.5-6.501-6.5
		c-3.59,0-6.5,2.91-6.5,6.5v20.5C99.071,120.581,101.981,123.492,105.571,123.492z"/>
	<path style="fill:#000002;" d="M131.321,123.492c3.59,0,6.5-2.91,6.5-6.5v-20.5c0-3.59-2.91-6.5-6.5-6.5c-3.59,0-6.5,2.91-6.5,6.5
		v20.5C124.821,120.581,127.731,123.492,131.321,123.492z"/>
	<path style="fill:#000002;" d="M157.071,123.492c3.59,0,6.5-2.91,6.5-6.5v-20.5c0-3.59-2.91-6.5-6.5-6.5c-3.59,0-6.5,2.91-6.5,6.5
		v20.5C150.571,120.581,153.481,123.492,157.071,123.492z"/>
	<path style="fill:#000002;" d="M182.821,123.492c3.59,0,6.5-2.91,6.5-6.5v-20.5c0-3.59-2.91-6.5-6.5-6.5c-3.59,0-6.5,2.91-6.5,6.5
		v20.5C176.321,120.581,179.231,123.492,182.821,123.492z"/>
</g>
<g>
</g>
<g>
</g>
<g>
</g>
<g>
</g>
<g>
</g>
<g>
</g>
<g>
</g>
<g>
</g>
<g>
</g>
<g>
</g>
<g>
</g>
<g>
</g>
<g>
</g>
<g>
</g>
<g>
</g>
</svg>
